<svg xmlns="http://www.w3.org/2000/svg" aria-labelledby="title desc" role="img" viewBox="0 0 1600 900"><title id="title">Woven cover</title><desc id="desc">Woven product statement beside the live buyer application.</desc><defs><clipPath id="frame"><rect width="1600" height="900" rx="38"/></clipPath><clipPath id="app-screen"><rect width="824" height="464" x="676" y="172" rx="10"/></clipPath><filter id="soft-shadow" width="140%" height="150%" x="-20%" y="-20%"><feDropShadow dx="0" dy="16" flood-color="#0e4b3b" flood-opacity=".14" stdDeviation="20"/></filter></defs><g clip-path="url(#frame)"><rect width="1600" height="900" fill="#f4eee4"/><rect width="610" height="900" fill="#0e4b3b"/><path fill="#b7f522" d="M610 0h22v900h-22z"/><circle cx="564" cy="88" r="122" fill="none" stroke="#dcece5" stroke-width="2" opacity=".13"/><circle cx="564" cy="88" r="82" fill="none" stroke="#b7f522" stroke-width="2" opacity=".2"/><g transform="translate(64 58)"><rect width="104" height="104" fill="#fcfaf5" rx="25"/><g transform="translate(10 10) scale(.65625)"><rect width="128" height="128" fill="#0e4b3b" rx="28"/><path fill="none" stroke="#fcfaf5" stroke-linecap="round" stroke-linejoin="round" stroke-width="13" d="M20 36c14 0 13 56 30 56 13 0 13-36 21-36s8 36 21 36c16 0 15-56 18-56"/><circle cx="20" cy="36" r="10" fill="#b7f522"/><circle cx="110" cy="36" r="12" fill="#fcfaf5"/><circle cx="110" cy="36" r="7" fill="#1545e8"/></g><text x="138" y="53" fill="#fcfaf5" font-family="Avenir Next, Futura, Helvetica Neue, Arial, sans-serif" font-size="48" font-weight="800" letter-spacing="8">WOVEN</text><text x="142" y="84" fill="#a9bbb4" font-family="Avenir Next, Helvetica Neue, Arial, sans-serif" font-size="11" font-weight="700" letter-spacing="2.6">CHATGPT + CODEX MCP APP</text></g><g><text fill="#fcfaf5" font-family="Iowan Old Style, Baskerville, Georgia, serif" font-size="68" font-weight="600" letter-spacing="-2" transform="translate(64 286)">Ask once.</text><text y="78" fill="#fcfaf5" font-family="Iowan Old Style, Baskerville, Georgia, serif" font-size="68" font-weight="600" letter-spacing="-2" transform="translate(64 286)">Review once.</text><text y="156" fill="#b7f522" font-family="Iowan Old Style, Baskerville, Georgia, serif" font-size="76" font-style="italic" font-weight="500" letter-spacing="-2.5" transform="translate(64 286)">Confirm once.</text><text y="225" fill="#dcece5" font-family="Avenir Next, Helvetica Neue, Arial, sans-serif" font-size="21" transform="translate(64 286)">Complete, compatible carts from</text><text y="258" fill="#dcece5" font-family="Avenir Next, Helvetica Neue, Arial, sans-serif" font-size="21" transform="translate(64 286)">one merchant and one pickup.</text></g><g font-family="Avenir Next, Helvetica Neue, Arial, sans-serif" font-size="11" font-weight="800" letter-spacing="1.5" transform="translate(64 652)"><rect width="150" height="36" fill="#dcece5" rx="18"/><text x="75" y="23" fill="#0e4b3b" text-anchor="middle">COMPLETE CARTS</text><rect width="136" height="36" x="162" fill="#dcece5" rx="18"/><text x="230" y="23" fill="#0e4b3b" text-anchor="middle">DEMO STOCK</text><rect width="176" height="36" x="310" fill="#1545e8" rx="18"/><text x="398" y="23" fill="#fcfaf5" text-anchor="middle">EXACT CONFIRMATION</text></g><text x="64" y="828" fill="#91a59d" font-family="Avenir Next, Helvetica Neue, Arial, sans-serif" font-size="12" font-weight="700" letter-spacing="2">SIMULATED VISA · NO CARD DATA · NO LIVE CHARGE</text><g filter="url(#soft-shadow)"><rect width="886" height="670" x="650" y="84" fill="#fcfaf5" rx="30"/><path fill="#0e4b3b" d="M680 84h826a30 30 0 0 1 30 30v38H650v-38a30 30 0 0 1 30-30Z"/><circle cx="682" cy="119" r="6" fill="#b7f522"/><circle cx="703" cy="119" r="6" fill="#dcece5"/><circle cx="724" cy="119" r="6" fill="#1545e8"/><text x="757" y="124" fill="#fcfaf5" font-family="SFMono-Regular, Menlo, monospace" font-size="12" font-weight="700" letter-spacing="1.6">WOVEN BUYER APP · LIVE PROTOTYPE</text><image width="824" height="464" x="676" y="172" clip-path="url(#app-screen)" href="../screenshots/buyer-overview.png" preserveAspectRatio="xMidYMid slice"/><rect width="824" height="1" x="676" y="657" fill="#d8d0c4"/><text x="676" y="704" fill="#0e4b3b" font-family="Iowan Old Style, Baskerville, Georgia, serif" font-size="26" font-weight="600">The tool builds the whole cart—not another list of links.</text><text x="676" y="730" fill="#6d7974" font-family="Avenir Next, Helvetica Neue, Arial, sans-serif" font-size="14">Five ranked options · one pickup each · exact terms before confirmation</text></g><text x="650" y="820" fill="#0e4b3b" font-family="SFMono-Regular, Menlo, monospace" font-size="12" font-weight="700" letter-spacing="1.5">REAL UI · SHARED MCP BACKEND · STAGE-SAFE BROWSER FALLBACK</text></g></svg>